<svg height="512pt" viewBox="0 -15 512.001 512" width="512pt" xmlns="http://www.w3.org/2000/svg"><path d="m281.398438 203.460938h13.511718v.855468 8.042969c0 6.75 4.273438 13.125 10.636719 15.863281 1.453125.628906 3.914063 1.425782 7.015625 1.425782 4.179688 0 9.523438-1.453126 15.109375-6.738282l12.4375-11.734375c.070313-.0625.136719-.128906.199219-.195312 7.605468-7.726563 7.609375-7.726563 17.859375-7.574219 1.667969.027344 3.527343.054688 5.632812.054688h34.8125c10.726563 0 19.457031-8.730469 19.457031-19.464844v-73.203125c0-10.746094-8.726562-19.492188-19.457031-19.492188h-117.214843c-10.726563 0-19.453126 8.746094-19.453126 19.492188v73.203125c0 10.734375 8.726563 19.464844 19.453126 19.464844zm-4.339844-92.664063c0-2.375 1.988281-4.378906 4.339844-4.378906h117.214843c2.394531 0 4.34375 1.964843 4.34375 4.378906v73.199219c0 2.359375-1.988281 4.351562-4.34375 4.351562h-34.808593c-2.023438 0-3.8125-.027344-5.410157-.050781-12.941406-.195313-17.207031.269531-28.757812 11.980469l-12.34375 11.648437c-2.230469 2.109375-4.386719 3.011719-5.769531 2.414063-.976563-.417969-1.496094-1.421875-1.496094-1.984375v-8.039063c0-5.480468 0-9.097656-2.710938-12.269531-3.160156-3.703125-7.46875-3.703125-12.03125-3.703125h-13.882812c-2.355469 0-4.34375-1.992188-4.34375-4.347656zm0 0"/><path d="m309.226562 154.953125h.226563c4.175781 0 7.558594-3.382813 7.558594-7.554687 0-4.175782-3.382813-7.558594-7.558594-7.558594h-.226563c-4.171874 0-7.554687 3.382812-7.554687 7.558594 0 4.171874 3.382813 7.554687 7.554687 7.554687zm0 0"/><path d="m339.269531 154.953125h.226563c4.175781 0 7.558594-3.382813 7.558594-7.554687 0-4.175782-3.382813-7.558594-7.558594-7.558594h-.226563c-4.175781 0-7.558593 3.382812-7.558593 7.558594 0 4.171874 3.382812 7.554687 7.558593 7.554687zm0 0"/><path d="m369.339844 154.953125h.195312c4.175782 0 7.558594-3.382813 7.558594-7.554687 0-4.175782-3.382812-7.558594-7.558594-7.558594h-.195312c-4.175782 0-7.558594 3.382812-7.558594 7.558594 0 4.171874 3.382812 7.554687 7.558594 7.554687zm0 0"/><path d="m180.058594 273.964844h-.199219c-4.175781 0-7.558594 3.386718-7.558594 7.558594 0 4.175781 3.382813 7.558593 7.558594 7.558593h.199219c4.171875 0 7.554687-3.386719 7.554687-7.558593 0-4.171876-3.382812-7.558594-7.554687-7.558594zm0 0"/><path d="m179.148438 262.765625h.199218c4.171875 0 7.554688-3.382813 7.554688-7.554687 0-4.175782-3.382813-7.558594-7.554688-7.558594h-.199218c-4.175782 0-7.558594 3.386718-7.558594 7.558594.003906 4.171874 3.386718 7.554687 7.558594 7.554687zm0 0"/><path d="m478.371094.515625c-.050782-.003906-.097656-.003906-.148438-.003906l-221.226562-.511719c-.011719 0-.023438 0-.035156 0l-223.167969.511719c-18.632813 0-33.792969 15.167969-33.792969 33.816406v327.105469c0 18.644531 15.160156 33.8125 33.792969 33.8125h145.769531l-6.851562 26.289062h-17.898438c-16.378906 0-29.703125 13.332032-29.703125 29.722656v12.164063c0 9.695313 7.871094 17.585937 17.550781 17.585937h237.726563c9.675781 0 17.550781-7.890624 17.550781-17.585937v-12.164063c0-16.390624-13.335938-29.722656-29.734375-29.722656h-17.898437l-6.851563-26.289062h134.753906c18.632813 0 33.792969-15.167969 33.792969-33.8125v-327.105469c0-18.246094-15.085938-33.414063-33.628906-33.8125zm-95.546875 450.742187v12.164063c0 1.339844-1.117188 2.472656-2.4375 2.472656h-237.726563c-1.320312 0-2.4375-1.132812-2.4375-2.472656v-12.164063c0-8.054687 6.546875-14.605468 14.589844-14.605468h23.714844.03125.019531 165.859375.023438.027343 23.714844c8.0625 0 14.621094 6.550781 14.621094 14.605468zm-48.136719-29.722656h-146.355469l6.851563-26.289062h132.652344zm143.519531-41.402344h-444.414062c-10.300781 0-18.679688-8.390624-18.679688-18.699218v-12.847656h224.234375c4.171875 0 7.554688-3.382813 7.554688-7.554688 0-4.175781-3.382813-7.558594-7.554688-7.558594h-224.234375v-299.144531c0-10.3125 8.378907-18.703125 18.699219-18.703125l223.167969-.511719 221.128906.511719c10.359375.261719 18.777344 8.636719 18.777344 18.699219v299.144531h-222.871094c-4.171875 0-7.554687 3.382812-7.554687 7.558594 0 4.175781 3.382812 7.558594 7.554687 7.558594h222.871094v12.84375c0 10.3125-8.378907 18.703124-18.679688 18.703124zm0 0"/><path d="m460.601562 313.972656c7.25 0 13.152344-5.898437 13.152344-13.152344v-248.875c0-7.269531-5.902344-13.183593-13.152344-13.183593h-185.390624c-4.175782 0-7.558594 3.382812-7.558594 7.554687 0 4.175782 3.382812 7.558594 7.558594 7.558594h183.425781v244.984375h-171.0625c-5.46875-42.914063-36.777344-66.992187-68.792969-76.96875 15.253906-11.371094 24.261719-27.960937 24.261719-45v-20.839844c.175781-2.375.113281-5.003906.050781-7.347656-.023438-.777344-.042969-1.511719-.050781-2.117187-.238281-42.703126-31.085938-61.785157-61.621094-61.785157-.066406 0-.136719 0-.203125 0-16.210938.046875-32.308594 5.5-44.167969 14.964844-13.503906 10.777344-20.941406 26.15625-20.941406 43.308594v33.816406c0 17.683594 9.738281 34.167969 24.40625 45.070313-14.453125 4.609374-28.097656 11.878906-39.179687 21.074218-18.117188 15.039063-28.570313 34.214844-30.539063 55.820313h-17.664063v-244.980469h187.179688c4.171875 0 7.554688-3.382812 7.554688-7.554688 0-4.175781-3.382813-7.558593-7.554688-7.558593h-189.140625c-7.25 0-13.152344 5.914062-13.152344 13.183593v248.875c0 7.253907 5.902344 13.15625 13.152344 13.15625h409.429687zm-329.378906-170.894531c0-27.941406 25.78125-43.089844 50.039063-43.160156h.152343c21.375 0 46.320313 12.234375 46.511719 46.792969.007813.496093.019531 1.03125.035157 1.597656h-24.449219c-19.832031 0-27.625-4.730469-34.507813-8.910156-1.390625-.84375-2.632812-1.660157-3.835937-2.449219-3.878907-2.550781-7.5625-4.976563-12.121094-4.976563-.535156 0-1.085937.035156-1.648437.105469-6.203126.78125-10.546876 5.917969-14.324219 11.351563-3.019531 4.355468-4.308594 4.820312-5.855469 4.871093v-5.222656zm0 33.816406v-13.492187c9.246094-.21875 14.253906-5.566406 18.269532-11.355469 1.953124-2.8125 3.167968-4.109375 3.8125-4.691406.921874.484375 2.355468 1.425781 3.5625 2.21875 1.253906.828125 2.679687 1.765625 4.304687 2.746093 7.714844 4.6875 18.28125 11.101563 42.339844 11.101563h24.417969v13.46875c0 13.042969-7.652344 25.9375-20.476563 34.5-3.789063 2.542969-7.863281 4.558594-12.058594 6.011719-.574219.117187-1.128906.300781-1.65625.542968-4.660156 1.4375-9.441406 2.175782-14.117187 2.140626-4.898438-.027344-9.707032-.828126-14.28125-2.25-.410156-.175782-.835938-.316407-1.277344-.417969-18.492188-6.277344-32.839844-22.816407-32.839844-40.523438zm30.355469 55.621094c5.742187 1.703125 11.769531 2.648437 17.941406 2.6875.140625 0 .285157.003906.429688.003906 5.890625 0 11.867187-.921875 17.691406-2.660156 31.570313 4.605469 68.207031 24.5625 74.648437 66.3125h-24.589843v-12.503906c0-4.175781-3.382813-7.558594-7.558594-7.558594-4.171875 0-7.554687 3.382813-7.554687 7.558594v12.503906h-106.445313v-12.503906c0-4.175781-3.382813-7.558594-7.558594-7.558594s-7.558593 3.382813-7.558593 7.558594v12.503906h-25.039063c4.578125-41.132813 46.132813-61.945313 75.59375-66.34375zm0 0"/></svg>